<?xml version="1.0" encoding="UTF-8" standalone="no"?>
<svg
   xmlns:dc="http://purl.org/dc/elements/1.1/"
   xmlns:cc="http://creativecommons.org/ns#"
   xmlns:rdf="http://www.w3.org/1999/02/22-rdf-syntax-ns#"
   xmlns:svg="http://www.w3.org/2000/svg"
   xmlns="http://www.w3.org/2000/svg"
   xmlns:sodipodi="http://sodipodi.sourceforge.net/DTD/sodipodi-0.dtd"
   xmlns:inkscape="http://www.inkscape.org/namespaces/inkscape"
   version="1.1"
   id="svg2"
   xml:space="preserve"
   width="1440"
   height="1440"
   viewBox="0 0 1440 1440"
   sodipodi:docname="Logo Editable.eps"><metadata
     id="metadata8"><rdf:RDF><cc:Work
         rdf:about=""><dc:format>image/svg+xml</dc:format><dc:type
           rdf:resource="http://purl.org/dc/dcmitype/StillImage" /></cc:Work></rdf:RDF></metadata><defs
     id="defs6" /><sodipodi:namedview
     pagecolor="#ffffff"
     bordercolor="#666666"
     borderopacity="1"
     objecttolerance="10"
     gridtolerance="10"
     guidetolerance="10"
     inkscape:pageopacity="0"
     inkscape:pageshadow="2"
     inkscape:window-width="640"
     inkscape:window-height="480"
     id="namedview4" /><g
     id="g10"
     inkscape:groupmode="layer"
     inkscape:label="ink_ext_XXXXXX"
     transform="matrix(1.3333333,0,0,-1.3333333,0,1440)"><g
       id="g12"
       transform="scale(0.1)"><path
         d="M 10800,0 H 0 V 10800 H 10800 V 0"
         style="fill:#f4fbfb;fill-opacity:1;fill-rule:nonzero;stroke:none"
         id="path14" /><path
         d="m 3018.57,4624.97 -145.3,323.46 -145.8,-323.46 z m 50.33,-111.42 h -391.74 l -56.49,-125.79 H 2480 l 389.18,844.59 h 7.7 l 389.17,-844.59 h -140.67 l -56.48,125.79"
         style="fill:#db1663;fill-opacity:1;fill-rule:nonzero;stroke:none"
         id="path16" /><path
         d="m 3765.4,4815.96 c 78.05,-0.52 143.24,62.64 143.24,136.57 0,77.02 -66.23,134.01 -143.24,134.01 H 3635 v -270.58 z m 194.58,-428.2 -222.81,320.37 H 3635.5 v -320.37 h -129.88 l -0.52,827.65 h 257.22 c 154.03,0 280.34,-118.61 280.34,-265.96 0,-106.79 -68.81,-199.72 -163.8,-230.53 l 240.81,-331.16 h -159.69"
         style="fill:#db1663;fill-opacity:1;fill-rule:nonzero;stroke:none"
         id="path18" /><path
         d="m 4314.56,4801.07 c 0,233.1 194.6,428.72 427.18,428.72 107.31,-1.55 206.39,-47.24 287.53,-126.31 l -75.48,-102.17 c -58.02,58.02 -133.49,96.52 -214.61,96.52 -149.93,0 -293.18,-131.44 -293.18,-297.27 0,-166.86 145.3,-295.74 293.68,-295.74 84.72,0 157.63,42.1 214.62,98.58 l 74.97,-104.74 c -71.39,-70.34 -162.26,-124.25 -285.48,-124.25 -234.63,0 -429.23,193.05 -429.23,426.66"
         style="fill:#db1663;fill-opacity:1;fill-rule:nonzero;stroke:none"
         id="path20" /><path
         d="m 5750.39,4624.97 -145.3,323.46 -145.8,-323.46 z m 50.32,-111.42 h -391.74 l -56.48,-125.79 H 5211.82 L 5601,5232.35 h 7.7 l 389.16,-844.59 h -140.67 l -56.48,125.79"
         style="fill:#db1663;fill-opacity:1;fill-rule:nonzero;stroke:none"
         id="path22" /><path
         d="m 6767.79,4801.07 c 0,175.6 -113.98,285.47 -295.74,285.47 H 6366.3 v -569.39 h 107.29 c 180.74,0 294.2,109.35 294.2,283.92 z m 131.44,-0.51 c 0,-254.14 -163.78,-412.8 -426.65,-412.8 h -235.67 v 827.65 h 235.67 c 262.87,0.51 426.65,-158.65 426.65,-414.85"
         style="fill:#db1663;fill-opacity:1;fill-rule:nonzero;stroke:none"
         id="path24" /><path
         d="m 7165.49,5215.41 h 129.9 v -827.65 h -129.9 v 827.65"
         style="fill:#db1663;fill-opacity:1;fill-rule:nonzero;stroke:none"
         id="path26" /><path
         d="m 8072.53,4624.97 -145.3,323.46 -145.8,-323.46 z m 50.31,-111.42 H 7731.1 l -56.48,-125.79 h -140.67 l 389.18,844.59 h 7.7 L 8320,4387.76 h -140.67 l -56.49,125.79"
         style="fill:#db1663;fill-opacity:1;fill-rule:nonzero;stroke:none"
         id="path28" /><path
         d="m 5389.11,6322.82 13.24,0.08 671.31,-699.95 -675.82,1443.53 -13.24,-0.07 -658.26,-1451.63 662.77,708.04"
         style="fill:#f493c1;fill-opacity:1;fill-rule:nonzero;stroke:none"
         id="path30" /><path
         d="m 4966.36,5521.76 h -241.79 l 668.81,389.13 h 13.24 l 668.81,-389.13 h -241.77 l -437.93,232.86 -429.37,-232.86"
         style="fill:#db1663;fill-opacity:1;fill-rule:nonzero;stroke:none"
         id="path32" /><path
         d="m 3549.98,3740.03 c -19.02,0 -36.89,2.04 -53.13,6.05 -16.33,4.05 -31.79,10.28 -45.96,18.54 -14.08,8.21 -27.66,18.65 -40.36,31.02 l -5.09,4.96 17.37,15.03 4.29,-4.44 c 8.49,-8.8 17.36,-16.4 26.37,-22.62 9.01,-6.21 18.69,-11.4 28.79,-15.45 10.08,-4.03 20.89,-7.03 32.14,-8.9 11.32,-1.9 23.46,-2.84 36.08,-2.84 33.09,0 59.45,6.22 78.32,18.49 18.23,11.86 27.09,29.09 27.09,52.71 0,15.71 -3.65,28.44 -10.86,37.82 -7.38,9.58 -19.19,17.6 -35.08,23.81 -16.64,6.49 -38.39,12.38 -64.64,17.51 -25.61,4.93 -47.77,10.52 -65.83,16.6 -18.99,6.38 -33.7,15.6 -43.7,27.37 -10.27,12.07 -15.5,28.7 -15.5,49.44 0,21.51 5.43,39.97 16.14,54.88 10.63,14.81 25.84,26.19 45.19,33.8 18.95,7.43 41.28,11.19 66.42,11.19 15.08,0 29.14,-1.45 41.76,-4.32 12.84,-2.9 24.8,-7.58 35.59,-13.92 10.78,-6.34 21.08,-14.89 30.63,-25.44 l 4,-4.44 -15.22,-16.41 -4.79,5.23 c -6.5,7.11 -13.15,13.15 -19.79,17.93 -6.52,4.7 -13.42,8.46 -20.5,11.18 -7.18,2.75 -14.93,4.76 -23.09,5.99 -8.3,1.25 -17.59,1.89 -27.62,1.89 -37.63,0 -65.07,-7.12 -81.54,-21.18 -16.4,-13.97 -24.35,-32.1 -24.35,-55.41 0,-15.06 3.31,-26.95 9.86,-35.34 6.69,-8.57 17.61,-15.58 32.46,-20.83 15.81,-5.59 36.65,-11.01 61.94,-16.14 25.9,-5.25 48.72,-11.33 67.84,-18.08 19.86,-7.03 35.49,-16.85 46.46,-29.2 11.3,-12.74 17.04,-30.4 17.04,-52.47 0,-14.98 -3.05,-28.54 -9.01,-40.34 -6.02,-11.84 -14.87,-21.86 -26.31,-29.78 -11.19,-7.75 -24.88,-13.73 -40.69,-17.82 -15.61,-4.03 -33.34,-6.07 -52.72,-6.07"
         style="fill:#3da9a2;fill-opacity:1;fill-rule:nonzero;stroke:none"
         id="path34" /><path
         d="m 3548.03,4111.52 c -25.95,0 -49.09,-3.92 -68.8,-11.65 -20.55,-8.07 -36.73,-20.21 -48.11,-36.06 -11.51,-16.04 -17.35,-35.78 -17.35,-58.68 0,-22.32 5.73,-40.37 17.04,-53.67 10.78,-12.68 26.47,-22.55 46.59,-29.32 18.33,-6.17 40.77,-11.84 66.7,-16.82 25.82,-5.05 47.2,-10.83 63.48,-17.19 14.77,-5.77 25.63,-13.08 32.28,-21.71 6.31,-8.21 9.52,-19.59 9.52,-33.84 0,-21.23 -7.9,-36.69 -24.13,-47.25 -17.8,-11.57 -42.96,-17.44 -74.77,-17.44 -12.26,0 -24.03,0.93 -35.01,2.75 -10.77,1.8 -21.13,4.67 -30.78,8.54 -9.65,3.86 -18.91,8.82 -27.51,14.76 -8.66,5.96 -17.21,13.3 -25.39,21.78 l -8.59,8.89 -9.33,-8.1 -7.34,-6.34 -10.71,-9.3 10.16,-9.89 c 13.08,-12.75 27.1,-23.51 41.63,-31.99 14.69,-8.57 30.74,-15.04 47.68,-19.23 16.73,-4.14 35.14,-6.24 54.69,-6.24 19.92,0 38.2,2.1 54.35,6.27 16.55,4.27 30.94,10.58 42.77,18.76 12.33,8.55 21.89,19.38 28.4,32.19 6.45,12.74 9.72,27.3 9.72,43.3 0,23.72 -6.28,42.83 -18.68,56.8 -11.71,13.18 -28.24,23.61 -49.15,31.02 -19.41,6.84 -42.53,13.01 -68.72,18.32 -25.01,5.05 -45.54,10.41 -61.05,15.89 -13.68,4.83 -23.61,11.12 -29.51,18.7 -5.64,7.21 -8.49,17.75 -8.49,31.33 0,21.29 7.22,37.8 22.06,50.45 15.26,13.02 41.28,19.62 77.32,19.62 9.7,0 18.68,-0.61 26.66,-1.81 7.67,-1.17 14.98,-3.06 21.72,-5.64 6.56,-2.51 12.96,-6.01 19.04,-10.38 6.25,-4.51 12.56,-10.24 18.78,-17.04 l 9.55,-10.45 9.63,10.38 6.34,6.85 8.13,8.75 -8.01,8.85 c -9.99,11.05 -20.81,20.03 -32.16,26.69 -11.36,6.68 -23.95,11.61 -37.44,14.67 -13.11,2.98 -27.65,4.48 -43.21,4.48 z m 0,-13.03 c 14.67,0 28.11,-1.39 40.33,-4.15 12.23,-2.78 23.46,-7.17 33.72,-13.21 10.27,-6.03 19.96,-14.1 29.09,-24.19 l -6.36,-6.84 c -6.84,7.49 -13.77,13.76 -20.78,18.82 -7,5.04 -14.33,9.04 -21.99,11.98 -7.66,2.93 -15.8,5.04 -24.44,6.35 -8.64,1.29 -18.17,1.95 -28.6,1.95 -39.42,0 -68.01,-7.58 -85.78,-22.73 -17.77,-15.15 -26.64,-35.28 -26.64,-60.37 0,-16.61 3.74,-29.73 11.24,-39.34 7.5,-9.62 19.31,-17.28 35.44,-22.98 16.13,-5.7 37.06,-11.16 62.81,-16.38 25.74,-5.21 48.07,-11.16 66.98,-17.84 18.89,-6.68 33.47,-15.81 43.75,-27.37 10.26,-11.57 15.39,-27.62 15.39,-48.15 0,-14.01 -2.78,-26.47 -8.31,-37.39 -5.55,-10.92 -13.61,-20.04 -24.19,-27.37 -10.6,-7.34 -23.47,-12.96 -38.63,-16.87 -15.15,-3.9 -32.18,-5.86 -51.08,-5.86 -18.56,0 -35.76,1.96 -51.56,5.86 -15.81,3.91 -30.56,9.86 -44.24,17.84 -13.69,7.98 -26.72,18 -39.1,30.06 l 7.32,6.36 c 8.81,-9.12 17.92,-16.95 27.38,-23.46 9.45,-6.52 19.48,-11.9 30.06,-16.13 10.59,-4.24 21.76,-7.33 33.49,-9.3 11.73,-1.95 24.1,-2.93 37.15,-2.93 34.53,0 61.83,6.53 81.87,19.55 20.04,13.03 30.06,32.43 30.06,58.18 0,17.26 -4.08,31.2 -12.21,41.79 -8.16,10.59 -20.79,19.22 -37.89,25.9 -17.1,6.68 -39.03,12.63 -65.75,17.85 -25.42,4.89 -47.09,10.34 -65,16.37 -17.93,6.04 -31.54,14.49 -40.82,25.42 -9.28,10.91 -13.93,25.99 -13.93,45.22 0,20.2 4.96,37.22 14.91,51.08 9.93,13.85 24.02,24.36 42.27,31.52 18.26,7.17 39.6,10.76 64.04,10.76"
         style="fill:#3da9a2;fill-opacity:1;fill-rule:nonzero;stroke:none"
         id="path36" /><path
         d="m 3961.55,3901.66 c 16.11,0 30.09,4.34 41.58,12.89 11.75,8.73 20.84,20.05 27.04,33.64 6.27,13.75 9.43,28.14 9.43,42.77 0,15.43 -3.68,30.09 -10.95,43.58 -7.28,13.49 -17.26,24.55 -29.67,32.88 -12.2,8.19 -25.95,12.33 -40.84,12.33 h -124.98 v -178.09 z m -151.21,-159.19 v 360.09 h 147.8 c 15.3,0 29.53,-3.27 42.29,-9.75 12.6,-6.38 23.63,-15.06 32.8,-25.76 9.07,-10.64 16.27,-22.61 21.4,-35.58 5.16,-13.11 7.79,-26.73 7.79,-40.51 0,-18.85 -4.27,-37.01 -12.66,-53.98 -8.43,-17.03 -20.22,-31.07 -35.02,-41.75 -15.07,-10.86 -32.97,-16.38 -53.19,-16.38 h -128.39 v -136.38 h -22.82"
         style="fill:#3da9a2;fill-opacity:1;fill-rule:nonzero;stroke:none"
         id="path38" /><path
         d="m 3839.68,4073.23 h 118.46 c 13.76,0 25.94,-3.67 37.22,-11.23 11.52,-7.72 20.78,-18.01 27.56,-30.56 6.75,-12.52 10.17,-26.15 10.17,-40.48 0,-13.69 -2.98,-27.17 -8.85,-40.07 -5.81,-12.76 -13.99,-22.93 -24.99,-31.11 -10.5,-7.81 -22.82,-11.6 -37.7,-11.6 h -121.87 z m 118.46,35.85 h -154.31 v -373.12 h 35.85 v 13.03 123.34 h 121.87 c 21.61,0 40.79,5.93 57,17.62 15.67,11.29 28.14,26.14 37.06,44.13 8.84,17.89 13.33,37.02 13.33,56.88 0,14.6 -2.78,29.03 -8.25,42.9 -5.39,13.65 -12.96,26.23 -22.49,37.41 -9.74,11.38 -21.45,20.58 -34.81,27.35 -13.69,6.95 -28.92,10.46 -45.25,10.46 z m -131.5,-213.93 h 134.91 c 17.61,0 32.77,4.71 45.47,14.17 12.71,9.45 22.39,21.51 29.07,36.17 6.68,14.67 10.03,29.82 10.03,45.47 0,16.61 -3.91,32.16 -11.73,46.68 -7.83,14.49 -18.41,26.22 -31.77,35.19 -13.37,8.96 -28.19,13.44 -44.48,13.44 h -131.5 v -191.12 m 131.5,200.89 c 14.34,0 27.45,-3.01 39.35,-9.04 11.89,-6.03 22.15,-14.1 30.79,-24.19 8.62,-10.11 15.39,-21.35 20.29,-33.73 4.89,-12.39 7.33,-25.1 7.33,-38.12 0,-17.93 -4,-34.95 -11.97,-51.09 -8,-16.13 -18.99,-29.25 -33,-39.35 -14.02,-10.1 -30.48,-15.16 -49.38,-15.16 h -134.91 v -136.37 h -9.77 v 347.05 h 141.27"
         style="fill:#3da9a2;fill-opacity:1;fill-rule:nonzero;stroke:none"
         id="path40" /><path
         d="m 4334.51,4082.2 c -21.35,0 -41.17,-4.53 -58.9,-13.49 -17.86,-8.99 -33.35,-21.27 -46.09,-36.48 -12.82,-15.34 -22.89,-32.7 -29.93,-51.61 -7.01,-18.89 -10.58,-38.44 -10.58,-58.1 0,-20.64 3.65,-40.76 10.81,-59.79 7.2,-19.06 17.48,-36.31 30.59,-51.27 13.06,-14.93 28.65,-26.91 46.37,-35.6 17.58,-8.64 37.01,-13.02 57.73,-13.02 21.36,0 41.09,4.53 58.63,13.47 17.69,9 33.13,21.28 45.87,36.5 12.81,15.31 22.88,32.67 29.93,51.61 7.02,18.89 10.57,38.43 10.57,58.1 0,20.6 -3.71,40.69 -11.04,59.74 -7.35,19.07 -17.72,36.33 -30.84,51.32 -13.05,14.92 -28.58,26.9 -46.15,35.61 -17.42,8.63 -36.59,13.01 -56.97,13.01 z m 0,-342.17 c -24.71,0 -47.73,5.25 -68.43,15.6 -20.54,10.27 -38.48,24.2 -53.34,41.41 -14.75,17.1 -26.33,36.76 -34.4,58.44 -8.06,21.64 -12.15,44.2 -12.15,67.04 0,23.83 4.27,46.9 12.67,68.58 8.4,21.65 20.3,41.23 35.43,58.2 15.16,17.02 33.19,30.69 53.58,40.63 20.53,10 42.95,15.07 66.64,15.07 25.04,0 48.16,-5.33 68.72,-15.86 20.39,-10.46 38.18,-24.65 52.85,-42.2 14.57,-17.41 26.05,-37.13 34.12,-58.59 8.04,-21.48 12.14,-43.63 12.14,-65.83 0,-24.16 -4.26,-47.4 -12.67,-69.08 -8.39,-21.64 -20.3,-41.22 -35.42,-58.19 -15.2,-17.04 -33.15,-30.63 -53.35,-40.4 -20.34,-9.83 -42.68,-14.82 -66.39,-14.82"
         style="fill:#3da9a2;fill-opacity:1;fill-rule:nonzero;stroke:none"
         id="path42" /><path
         d="m 4334.51,3769.36 c -19.72,0 -38.18,4.16 -54.86,12.35 -16.94,8.31 -31.85,19.76 -44.34,34.03 -12.59,14.39 -22.47,30.97 -29.38,49.3 -6.91,18.29 -10.4,37.63 -10.4,57.48 0,18.89 3.43,37.67 10.17,55.82 6.77,18.22 16.47,34.94 28.82,49.71 12.16,14.52 26.97,26.25 44.02,34.85 16.82,8.48 35.65,12.78 55.97,12.78 19.37,0 37.56,-4.15 54.09,-12.33 16.79,-8.33 31.63,-19.79 44.12,-34.06 12.62,-14.42 22.6,-31.03 29.67,-49.38 7.04,-18.29 10.61,-37.6 10.61,-57.39 0,-18.89 -3.42,-37.68 -10.17,-55.83 -6.79,-18.24 -16.49,-34.96 -28.82,-49.7 -12.17,-14.54 -26.92,-26.28 -43.81,-34.87 -16.65,-8.47 -35.38,-12.76 -55.69,-12.76 z m 0,342.16 c -24.69,0 -48.07,-5.29 -69.5,-15.73 -21.15,-10.31 -39.85,-24.49 -55.6,-42.16 -15.63,-17.55 -27.95,-37.79 -36.64,-60.16 -8.69,-22.45 -13.09,-46.32 -13.09,-70.95 0,-23.62 4.23,-46.94 12.55,-69.32 8.35,-22.41 20.32,-42.73 35.59,-60.43 15.41,-17.86 34.04,-32.32 55.36,-42.98 21.6,-10.8 45.6,-16.27 71.33,-16.27 24.7,0 47.99,5.2 69.22,15.46 20.99,10.14 39.62,24.25 55.38,41.93 15.65,17.55 27.97,37.8 36.63,60.17 8.7,22.44 13.11,46.47 13.11,71.44 0,22.98 -4.22,45.9 -12.56,68.12 -8.32,22.16 -20.16,42.51 -35.21,60.49 -15.24,18.22 -33.71,32.95 -54.88,43.8 -21.49,11.02 -45.61,16.59 -71.69,16.59 z m 0,-355.2 c 22.49,0 43.01,4.72 61.59,14.18 18.57,9.45 34.53,22.16 47.9,38.12 13.36,15.97 23.71,33.81 31.05,53.53 7.33,19.72 10.99,39.83 10.99,60.37 0,21.5 -3.83,42.2 -11.49,62.08 -7.66,19.87 -18.33,37.64 -32.01,53.27 -13.69,15.65 -29.75,28.03 -48.16,37.16 -18.4,9.11 -38.36,13.68 -59.87,13.68 -22.49,0 -43.09,-4.73 -61.83,-14.18 -18.75,-9.45 -34.8,-22.16 -48.16,-38.12 -13.36,-15.97 -23.71,-33.81 -31.03,-53.52 -7.34,-19.73 -11,-39.84 -11,-60.37 0,-21.51 3.74,-42.21 11.24,-62.08 7.5,-19.88 18.09,-37.64 31.77,-53.28 13.69,-15.65 29.82,-28.03 48.4,-37.15 18.57,-9.12 38.78,-13.69 60.61,-13.69 m 0,342.17 c 24.1,0 46.02,-5.05 65.74,-15.15 19.72,-10.11 36.66,-23.63 50.84,-40.58 14.18,-16.94 25.17,-35.85 32.99,-56.7 7.83,-20.85 11.74,-42.04 11.74,-63.54 0,-23.47 -4.08,-45.7 -12.23,-66.73 -8.14,-21.01 -19.55,-39.75 -34.21,-56.21 -14.67,-16.46 -31.77,-29.41 -51.32,-38.86 -19.56,-9.46 -40.75,-14.17 -63.55,-14.17 -23.79,0 -45.62,4.96 -65.51,14.91 -19.88,9.94 -36.98,23.22 -51.31,39.84 -14.35,16.61 -25.41,35.43 -33.25,56.44 -7.82,21.03 -11.73,42.61 -11.73,64.78 0,23.13 4.08,45.21 12.22,66.23 8.15,21.02 19.55,39.76 34.22,56.21 14.66,16.46 31.85,29.49 51.57,39.11 19.72,9.6 40.98,14.42 63.79,14.42"
         style="fill:#3da9a2;fill-opacity:1;fill-rule:nonzero;stroke:none"
         id="path44" /><path
         d="m 4790.56,3901.66 c 16.09,0 30,4.26 41.34,12.66 11.62,8.59 20.71,19.84 27.06,33.43 6.4,13.73 9.64,28.28 9.64,43.21 0,15.43 -3.68,30.09 -10.93,43.58 -7.29,13.49 -17.27,24.55 -29.68,32.88 -12.2,8.19 -25.96,12.33 -40.84,12.33 h -124.97 v -178.09 z m 78.58,-159.19 -87.99,136.38 h -118.97 v -136.38 h -22.83 v 360.09 h 147.8 c 15.3,0 29.52,-3.27 42.28,-9.75 12.6,-6.38 23.64,-15.06 32.82,-25.76 9.07,-10.64 16.26,-22.61 21.39,-35.58 5.17,-13.11 7.8,-26.73 7.8,-40.51 0,-18.84 -4.02,-36.65 -11.92,-52.95 -7.92,-16.35 -18.99,-30.04 -32.94,-40.71 -11.42,-8.76 -24.53,-14.49 -39.06,-17.09 l 88.85,-137.74 h -27.23"
         style="fill:#3da9a2;fill-opacity:1;fill-rule:nonzero;stroke:none"
         id="path46" /><path
         d="m 4668.68,4073.23 h 118.47 c 13.77,0 25.95,-3.67 37.23,-11.23 11.5,-7.72 20.78,-18.01 27.55,-30.56 6.74,-12.52 10.17,-26.15 10.17,-40.48 0,-13.98 -3.05,-27.58 -9.05,-40.44 -5.88,-12.61 -14.3,-23.03 -25.02,-30.97 -10.34,-7.65 -22.6,-11.37 -37.47,-11.37 h -121.88 z m 118.47,35.85 h -154.32 v -373.12 h 35.85 v 13.03 123.34 h 108.92 l 84.13,-130.41 3.86,-5.96 h 7.1 11.72 23.93 l -12.97,20.09 -77.33,119.87 c 11.86,3.31 22.74,8.73 32.51,16.21 14.74,11.28 26.47,25.76 34.84,43.04 8.33,17.18 12.56,35.95 12.56,55.79 0,14.6 -2.77,29.03 -8.24,42.9 -5.4,13.65 -12.96,26.23 -22.5,37.41 -9.75,11.38 -21.46,20.58 -34.82,27.35 -13.69,6.95 -28.91,10.46 -45.24,10.46 z m -131.5,-213.93 h 134.91 c 17.6,0 32.67,4.64 45.22,13.92 12.54,9.29 22.24,21.27 29.08,35.93 6.85,14.67 10.27,29.98 10.27,45.96 0,16.61 -3.92,32.16 -11.73,46.68 -7.82,14.49 -18.41,26.22 -31.77,35.19 -13.38,8.96 -28.19,13.44 -44.48,13.44 h -131.5 v -191.12 m 131.5,200.89 c 14.33,0 27.45,-3.01 39.34,-9.04 11.9,-6.03 22.15,-14.1 30.8,-24.19 8.63,-10.11 15.4,-21.35 20.29,-33.73 4.88,-12.39 7.33,-25.1 7.33,-38.12 0,-17.93 -3.75,-34.63 -11.25,-50.11 -7.5,-15.48 -17.84,-28.27 -31.04,-38.38 -13.2,-10.1 -28.6,-15.8 -46.18,-17.11 l 87.97,-136.37 h -11.72 l -87.99,136.37 h -129.05 v -136.37 h -9.78 v 347.05 h 141.28"
         style="fill:#3da9a2;fill-opacity:1;fill-rule:nonzero;stroke:none"
         id="path48" /><path
         d="m 5119.38,3742.47 v 337.28 h -132.96 v 22.81 h 288.73 v -22.81 h -132.96 v -337.28 h -22.81"
         style="fill:#3da9a2;fill-opacity:1;fill-rule:nonzero;stroke:none"
         id="path50" /><path
         d="m 5281.66,4109.08 h -301.75 v -35.85 h 132.95 v -324.24 -13.03 h 13.04 9.76 13.04 v 13.03 324.24 h 119.92 13.04 v 13.04 9.77 z m -13.04,-13.04 v -9.77 h -132.96 v -337.28 h -9.76 v 337.28 h -132.96 v 9.77 h 275.68"
         style="fill:#3da9a2;fill-opacity:1;fill-rule:nonzero;stroke:none"
         id="path52" /><path
         d="m 5509.6,3740.03 c -19.02,0 -36.89,2.04 -53.14,6.05 -16.32,4.05 -31.78,10.28 -45.95,18.54 -14.08,8.21 -27.66,18.65 -40.36,31.02 l -5.09,4.96 17.37,15.03 4.29,-4.44 c 8.49,-8.8 17.36,-16.4 26.37,-22.62 9.01,-6.21 18.69,-11.4 28.79,-15.45 10.08,-4.03 20.89,-7.03 32.14,-8.9 11.32,-1.9 23.46,-2.84 36.08,-2.84 33.09,0 59.45,6.22 78.32,18.49 18.23,11.86 27.09,29.09 27.09,52.71 0,15.71 -3.65,28.44 -10.86,37.82 -7.38,9.58 -19.19,17.6 -35.09,23.81 -16.63,6.49 -38.38,12.38 -64.63,17.51 -25.61,4.93 -47.78,10.52 -65.83,16.6 -18.99,6.38 -33.7,15.6 -43.71,27.37 -10.26,12.07 -15.49,28.7 -15.49,49.44 0,21.51 5.43,39.97 16.14,54.88 10.63,14.81 25.84,26.19 45.19,33.8 18.95,7.43 41.28,11.19 66.42,11.19 15.07,0 29.14,-1.45 41.76,-4.32 12.84,-2.9 24.8,-7.58 35.59,-13.92 10.78,-6.34 21.08,-14.89 30.63,-25.44 l 4,-4.44 -15.23,-16.41 -4.78,5.23 c -6.5,7.11 -13.16,13.15 -19.79,17.93 -6.52,4.7 -13.42,8.46 -20.5,11.18 -7.18,2.75 -14.94,4.76 -23.09,5.99 -8.3,1.25 -17.59,1.89 -27.62,1.89 -37.63,0 -65.08,-7.12 -81.54,-21.18 -16.4,-13.97 -24.36,-32.1 -24.36,-55.41 0,-15.06 3.32,-26.95 9.86,-35.34 6.7,-8.57 17.62,-15.58 32.47,-20.83 15.81,-5.59 36.64,-11.01 61.94,-16.14 25.9,-5.25 48.72,-11.33 67.84,-18.08 19.86,-7.03 35.49,-16.85 46.46,-29.2 11.3,-12.74 17.04,-30.4 17.04,-52.47 0,-14.98 -3.05,-28.54 -9.01,-40.34 -6.03,-11.84 -14.87,-21.86 -26.31,-29.78 -11.19,-7.75 -24.89,-13.73 -40.7,-17.82 -15.6,-4.03 -33.35,-6.07 -52.71,-6.07"
         style="fill:#3da9a2;fill-opacity:1;fill-rule:nonzero;stroke:none"
         id="path54" /><path
         d="m 5507.65,4111.52 c -25.95,0 -49.1,-3.92 -68.8,-11.65 -20.55,-8.07 -36.73,-20.21 -48.11,-36.06 -11.51,-16.04 -17.35,-35.78 -17.35,-58.68 0,-22.32 5.73,-40.37 17.04,-53.67 10.78,-12.68 26.46,-22.55 46.59,-29.32 18.33,-6.17 40.77,-11.84 66.7,-16.82 25.82,-5.05 47.2,-10.83 63.48,-17.19 14.77,-5.77 25.63,-13.08 32.28,-21.71 6.31,-8.21 9.51,-19.59 9.51,-33.84 0,-21.23 -7.89,-36.69 -24.13,-47.25 -17.79,-11.57 -42.95,-17.44 -74.76,-17.44 -12.26,0 -24.04,0.93 -35.01,2.75 -10.77,1.8 -21.13,4.67 -30.78,8.54 -9.65,3.86 -18.91,8.82 -27.51,14.76 -8.67,5.96 -17.21,13.3 -25.39,21.78 l -8.59,8.89 -9.33,-8.1 -7.34,-6.34 -10.71,-9.3 10.16,-9.89 c 13.08,-12.75 27.1,-23.51 41.63,-31.99 14.69,-8.57 30.74,-15.04 47.68,-19.23 16.73,-4.14 35.14,-6.24 54.69,-6.24 19.92,0 38.2,2.1 54.35,6.27 16.55,4.27 30.94,10.58 42.77,18.76 12.33,8.55 21.89,19.38 28.4,32.19 6.45,12.74 9.72,27.3 9.72,43.3 0,23.72 -6.29,42.83 -18.68,56.8 -11.71,13.18 -28.24,23.61 -49.15,31.02 -19.41,6.84 -42.53,13.01 -68.73,18.32 -25,5.05 -45.54,10.41 -61.04,15.89 -13.69,4.83 -23.61,11.12 -29.53,18.7 -5.62,7.21 -8.47,17.75 -8.47,31.33 0,21.29 7.22,37.8 22.06,50.45 15.25,13.02 41.28,19.62 77.32,19.62 9.7,0 18.67,-0.61 26.66,-1.81 7.67,-1.17 14.98,-3.06 21.72,-5.64 6.55,-2.51 12.96,-6.01 19.04,-10.38 6.25,-4.51 12.56,-10.24 18.77,-17.04 l 9.56,-10.45 9.62,10.38 6.35,6.85 8.13,8.75 -8.01,8.85 c -9.99,11.05 -20.81,20.03 -32.16,26.69 -11.36,6.68 -23.95,11.61 -37.44,14.67 -13.12,2.98 -27.65,4.48 -43.21,4.48 z m 0,-13.03 c 14.66,0 28.11,-1.39 40.33,-4.15 12.23,-2.78 23.46,-7.17 33.72,-13.21 10.27,-6.03 19.96,-14.1 29.09,-24.19 l -6.36,-6.84 c -6.84,7.49 -13.77,13.76 -20.78,18.82 -7,5.04 -14.33,9.04 -21.99,11.98 -7.66,2.93 -15.81,5.04 -24.44,6.35 -8.64,1.29 -18.17,1.95 -28.6,1.95 -39.42,0 -68.01,-7.58 -85.78,-22.73 -17.77,-15.15 -26.64,-35.28 -26.64,-60.37 0,-16.61 3.74,-29.73 11.24,-39.34 7.5,-9.62 19.31,-17.28 35.44,-22.98 16.13,-5.7 37.06,-11.16 62.81,-16.38 25.74,-5.21 48.07,-11.16 66.98,-17.84 18.89,-6.68 33.47,-15.81 43.75,-27.37 10.25,-11.57 15.39,-27.62 15.39,-48.15 0,-14.01 -2.78,-26.47 -8.31,-37.39 -5.55,-10.92 -13.61,-20.04 -24.19,-27.37 -10.6,-7.34 -23.47,-12.96 -38.63,-16.87 -15.15,-3.9 -32.18,-5.86 -51.08,-5.86 -18.56,0 -35.76,1.96 -51.56,5.86 -15.82,3.91 -30.56,9.86 -44.24,17.84 -13.69,7.98 -26.72,18 -39.1,30.06 l 7.32,6.36 c 8.81,-9.12 17.92,-16.95 27.37,-23.46 9.46,-6.52 19.49,-11.9 30.07,-16.13 10.59,-4.24 21.76,-7.33 33.49,-9.3 11.73,-1.95 24.1,-2.93 37.15,-2.93 34.53,0 61.83,6.53 81.87,19.55 20.04,13.03 30.06,32.43 30.06,58.18 0,17.26 -4.08,31.2 -12.22,41.79 -8.15,10.59 -20.78,19.22 -37.88,25.9 -17.11,6.68 -39.03,12.63 -65.75,17.85 -25.42,4.89 -47.09,10.34 -65,16.37 -17.93,6.04 -31.54,14.49 -40.82,25.42 -9.29,10.91 -13.93,25.99 -13.93,45.22 0,20.2 4.96,37.22 14.91,51.08 9.93,13.85 24.02,24.36 42.27,31.52 18.26,7.17 39.6,10.76 64.04,10.76"
         style="fill:#3da9a2;fill-opacity:1;fill-rule:nonzero;stroke:none"
         id="path56" /><path
         d="m 6052.31,3742.47 -78.34,180.31 -78.33,-180.31 h -19.29 l -156.73,360.09 h 24.98 l 141.39,-325 75.49,173.79 -64.93,148.28 h 25 l 51.96,-120.18 52.41,120.18 h 24.99 l -64.92,-148.27 75.96,-173.84 141.4,325.04 h 24.97 l -156.71,-360.09 h -19.3"
         style="fill:#3da9a2;fill-opacity:1;fill-rule:nonzero;stroke:none"
         id="path58" /><path
         d="m 6238.26,4109.08 h -39.18 l -3.41,-7.84 -133.74,-307.41 -68.83,157.52 59.78,136.54 8,18.26 h -19.94 -10.75 -8.54 l -3.42,-7.83 -44.69,-102.5 -44.3,102.47 -3.4,7.86 h -8.56 -10.76 -19.94 l 8,-18.26 59.8,-136.55 -68.4,-157.43 -133.7,307.33 -3.41,7.84 h -8.55 -10.75 -19.89 l 7.94,-18.24 151.04,-347.05 3.41,-7.83 h 8.54 10.76 8.54 l 3.41,7.84 70.65,162.63 70.66,-162.63 3.41,-7.84 h 8.55 10.75 8.55 l 3.41,7.83 151.02,347.05 z m -19.89,-13.04 -151.03,-347.05 h -10.75 l -82.62,190.15 -82.6,-190.15 h -10.76 l -151.04,347.05 h 10.75 l 145.67,-334.83 82.6,190.15 -62.07,141.76 h 10.76 l 56.21,-130.03 56.7,130.03 h 10.75 l -62.07,-141.76 83.09,-190.15 145.67,334.83 h 10.74"
         style="fill:#3da9a2;fill-opacity:1;fill-rule:nonzero;stroke:none"
         id="path60" /><path
         d="m 6347.73,3742.47 v 360.09 h 236.44 v -22.81 h -213.6 v -141.92 h 187.2 v -22.81 h -187.2 v -149.74 h 218 v -22.81 h -240.84"
         style="fill:#3da9a2;fill-opacity:1;fill-rule:nonzero;stroke:none"
         id="path62" /><path
         d="m 6590.68,4109.08 h -249.46 v -373.12 h 253.87 v 13.03 9.78 13.04 h -13.04 -204.98 v 136.7 h 174.18 13.04 v 13.03 9.78 13.04 h -13.04 -174.18 v 128.87 h 200.58 13.03 v 13.04 9.77 z m -13.03,-13.04 v -9.77 h -213.61 v -154.95 h 187.21 v -9.78 h -187.21 v -162.77 h 218.01 v -9.78 h -227.79 v 347.05 h 223.39"
         style="fill:#3da9a2;fill-opacity:1;fill-rule:nonzero;stroke:none"
         id="path64" /><path
         d="m 6926.94,3889.44 -76.55,176.11 -76.81,-176.11 z m 63.87,-146.97 -53.96,124.16 h -173.21 l -54.15,-124.16 h -24.98 l 157.22,360.09 h 17.33 l 156.73,-360.09 h -24.98"
         style="fill:#3da9a2;fill-opacity:1;fill-rule:nonzero;stroke:none"
         id="path66" /><path
         d="m 6783.54,3895.96 66.84,153.26 66.62,-153.26 z m 79.8,213.12 h -8.54 -8.8 -8.53 l -3.42,-7.82 -151.52,-347.05 -7.97,-18.25 h 19.91 10.75 8.54 l 3.42,7.82 50.73,116.33 h 164.67 l 50.55,-116.31 3.41,-7.84 h 8.55 10.75 19.89 l -7.94,18.23 -151.04,347.06 z m -99.7,-226.16 h 173.24 l -86.48,198.95 -86.76,-198.95 m 91.16,213.12 151.04,-347.05 h -10.75 l -53.97,124.15 h -181.74 l -54.16,-124.15 h -10.75 L 6846,4096.04 h 8.8"
         style="fill:#3da9a2;fill-opacity:1;fill-rule:nonzero;stroke:none"
         id="path68" /><path
         d="m 7286.41,3901.66 c 16.09,0 30,4.26 41.34,12.66 11.62,8.59 20.71,19.84 27.05,33.43 6.41,13.73 9.65,28.28 9.65,43.21 0,15.43 -3.68,30.09 -10.94,43.58 -7.29,13.49 -17.27,24.55 -29.67,32.88 -12.21,8.19 -25.96,12.33 -40.84,12.33 h -124.98 v -178.09 z m 78.57,-159.19 -87.98,136.38 h -118.98 v -136.38 h -22.82 v 360.09 H 7283 c 15.3,0 29.52,-3.27 42.28,-9.75 12.6,-6.38 23.64,-15.06 32.81,-25.76 9.07,-10.64 16.27,-22.61 21.4,-35.58 5.16,-13.11 7.79,-26.73 7.79,-40.51 0,-18.84 -4.01,-36.65 -11.91,-52.95 -7.92,-16.35 -19,-30.04 -32.94,-40.71 -11.43,-8.76 -24.53,-14.49 -39.06,-17.09 l 88.85,-137.74 h -27.24"
         style="fill:#3da9a2;fill-opacity:1;fill-rule:nonzero;stroke:none"
         id="path70" /><path
         d="M 7164.53,4073.23 H 7283 c 13.76,0 25.94,-3.67 37.21,-11.23 11.52,-7.72 20.8,-18.01 27.56,-30.56 6.75,-12.52 10.17,-26.15 10.17,-40.48 0,-13.98 -3.04,-27.58 -9.04,-40.44 -5.88,-12.61 -14.3,-23.03 -25.02,-30.97 -10.34,-7.65 -22.6,-11.37 -37.47,-11.37 h -121.88 z m 118.47,35.85 h -154.32 v -373.12 h 35.85 v 13.03 123.34 h 108.92 l 84.13,-130.41 3.85,-5.96 h 7.11 11.72 23.92 l -12.97,20.09 -77.32,119.87 c 11.86,3.31 22.74,8.73 32.5,16.21 14.75,11.28 26.48,25.76 34.85,43.04 8.33,17.18 12.55,35.95 12.55,55.79 0,14.6 -2.77,29.03 -8.24,42.9 -5.39,13.65 -12.96,26.23 -22.49,37.41 -9.75,11.38 -21.46,20.58 -34.82,27.35 -13.69,6.95 -28.91,10.46 -45.24,10.46 z m -131.51,-213.93 h 134.92 c 17.6,0 32.66,4.64 45.22,13.92 12.54,9.29 22.24,21.27 29.07,35.93 6.85,14.67 10.28,29.98 10.28,45.96 0,16.61 -3.92,32.16 -11.73,46.68 -7.82,14.49 -18.42,26.22 -31.78,35.19 -13.37,8.96 -28.18,13.44 -44.47,13.44 H 7151.49 V 3895.15 M 7283,4096.04 c 14.33,0 27.44,-3.01 39.34,-9.04 11.89,-6.03 22.15,-14.1 30.79,-24.19 8.63,-10.11 15.41,-21.35 20.3,-33.73 4.88,-12.39 7.32,-25.1 7.32,-38.12 0,-17.93 -3.75,-34.63 -11.24,-50.11 -7.5,-15.48 -17.84,-28.27 -31.04,-38.38 -13.2,-10.1 -28.6,-15.8 -46.19,-17.11 l 87.98,-136.37 h -11.72 l -87.99,136.37 h -129.06 v -136.37 h -9.77 v 347.05 H 7283"
         style="fill:#3da9a2;fill-opacity:1;fill-rule:nonzero;stroke:none"
         id="path72" /></g></g></svg>
